<svg xmlns="http://www.w3.org/2000/svg" version="1.1" xmlns:xlink="http://www.w3.org/1999/xlink" xmlns:svgjs="http://svgjs.com/svgjs" width="1000" height="1000"><rect width="1000" height="1000" rx="500" ry="500" fill="#0b0b0b"></rect><g transform="matrix(12.5,0,0,12.5,100.00668454170227,99.99592292308807)"><svg xmlns="http://www.w3.org/2000/svg" version="1.1" xmlns:xlink="http://www.w3.org/1999/xlink" xmlns:svgjs="http://svgjs.com/svgjs" width="64" height="64"><svg width="64" height="64" viewBox="0 0 64 64" fill="none" xmlns="http://www.w3.org/2000/svg">
<path d="M35.6917 25.8465V30.7696H33.2302V25.8465H35.6917Z" fill="#F5F5F5"></path>
<path d="M30.7686 30.7696H28.3071V25.8465H30.7686V30.7696Z" fill="#F5F5F5"></path>
<path d="M28.3071 35.6927V33.2311H25.8456V35.6927H28.3071L28.3071 38.1542H35.6917V35.6927H38.1532V33.2311H35.6917L35.6917 35.6927H28.3071Z" fill="#F5F5F5"></path>
<path fill-rule="evenodd" clip-rule="evenodd" d="M29.5379 4.92345H27.0763V7.38499H24.6148V4.92345H19.6917V7.38499H17.2302V9.84653H12.3071V12.3081H9.84555V17.2311H7.38401V19.6927H4.92248V24.6158H7.38401V27.0773H4.92248V29.5388H2.46094V34.4619H4.92248V36.9235H7.38401V39.385H4.92248V44.3081H7.38401V46.7696H9.84555V51.6927H12.3071V54.1542H17.2302V56.6158H19.6917V59.0773H24.6148V56.6158H27.0763V59.0773H29.5379V61.5388H34.4609V59.0773H36.9225V56.6158H39.384V59.0773H44.3071V56.6158H46.7686V54.1542H51.6917V51.6927H54.1532V46.7696H56.6148V44.3081H59.0763V39.385H56.6148V36.9235H59.0763V34.4619H61.5379V29.5388H59.0763V27.0773H56.6148V24.6158H59.0763V19.6927H56.6148V17.2311H54.1532V12.3081H51.6917V9.84653H46.7686V7.38499L44.3071 7.38499V4.92345H39.384V7.38499H36.9225V4.92345H34.4609V2.46191H29.5379V4.92345ZM29.5379 4.92345H34.4609V7.38499H36.9225V17.2311H34.4609V19.6927H29.5379V17.2311H27.0763V7.38499H29.5379V4.92345ZM24.6148 19.6927H29.5379V22.1542H34.4609V19.6927H39.384V22.1542H41.8456V24.6158H44.3071V29.5388H41.8456V34.4619H44.3071V39.385H41.8456V41.8465H39.384V44.3081H34.4609V41.8465H29.5379V44.3081H24.6148V41.8465H22.1532V39.385H19.6917V34.4619H22.1532V29.5388H19.6917V24.6158H22.1532V22.1542H24.6148V19.6927ZM22.1532 14.7696V17.2311H24.6148V19.6927H22.1532V22.1542H19.6917V24.6158H17.2302V22.1542H14.7686V19.6927H12.3071V12.3081H19.6917V14.7696H22.1532ZM22.1532 14.7696V12.3081H19.6917V7.38499H24.6148V14.7696H22.1532ZM12.3071 19.6927V22.1542H14.7686V24.6158H7.38401V19.6927H12.3071ZM19.6917 29.5388H17.2302V27.0773H7.38401V29.5388H4.92248V34.4619H7.38401V36.9235H17.2302V34.4619H19.6917V29.5388ZM14.7686 41.8465H17.2302V39.385H19.6917V41.8465H22.1532V44.3081H24.6148V46.7696H22.1532V49.2311H19.6917V51.6927H12.3071V44.3081H14.7686V41.8465ZM14.7686 41.8465V39.385H7.38401V44.3081H12.3071V41.8465H14.7686ZM19.6917 51.6927H22.1532V49.2311H24.6148V56.6158H19.6917V51.6927ZM29.5379 44.3081V46.7696H27.0763V56.6158H29.5379V59.0773H34.4609V56.6158H36.9225V46.7696H34.4609V44.3081H29.5379ZM41.8456 49.2311V46.7696H39.384V44.3081H41.8456V41.8465H44.3071V39.385H46.7686V41.8465H49.2302V44.3081H51.6917V51.6927H44.3071V49.2311H41.8456ZM41.8456 49.2311V51.6927H44.3071V56.6158H39.384V49.2311H41.8456ZM51.6917 44.3081H56.6148V39.385H49.2302V41.8465H51.6917V44.3081ZM44.3071 34.4619H46.7686V36.9235H56.6148V34.4619H59.0763V29.5388H56.6148V27.0773H46.7686V29.5388H44.3071V34.4619ZM49.2302 22.1542H46.7686V24.6158H44.3071V22.1542H41.8456V19.6927H39.384V17.2311H41.8456V14.7696H44.3071V12.3081H51.6917V19.6927H49.2302V22.1542ZM49.2302 22.1542V24.6158H56.6148V19.6927H51.6917V22.1542H49.2302ZM44.3071 12.3081H41.8456V14.7696H39.384V7.38499L44.3071 7.38499V12.3081Z" fill="#F5F5F5"></path>
</svg></svg></g></svg>